<svg xmlns="http://www.w3.org/2000/svg" width="1280" height="959" viewBox="0 0 1280 959" version="1.1"><path d="M 0 479.501 L 0 959.002 640.250 958.751 L 1280.500 958.500 1280.751 479.250 L 1281.002 0 640.501 0 L 0 0 0 479.501 M 0.496 480 C 0.496 743.725, 0.610 851.613, 0.750 719.750 C 0.890 587.888, 0.890 372.113, 0.750 240.250 C 0.610 108.388, 0.496 216.275, 0.496 480 M 616 18.602 C 572.939 20.890, 527.553 23.951, 520.500 25.042 C 517.200 25.552, 508.200 26.907, 500.500 28.052 C 492.800 29.197, 483.575 30.802, 480 31.618 C 476.425 32.435, 470.575 33.752, 467 34.545 C 463.425 35.339, 456.450 37.147, 451.500 38.563 C 439.845 41.899, 435.705 42.920, 431.739 43.438 C 425.703 44.227, 419.529 45.964, 410 49.555 C 404.775 51.524, 399.613 53.408, 398.528 53.742 C 394.900 54.860, 376.737 64.085, 372.594 66.915 C 370.342 68.452, 364.900 71.666, 360.500 74.057 C 356.100 76.447, 352.350 78.762, 352.167 79.201 C 351.983 79.641, 351.083 80.036, 350.167 80.081 C 346.771 80.245, 330.278 91.245, 322.998 98.202 C 320.523 100.566, 317.217 103.400, 315.650 104.500 C 312.022 107.046, 305.801 111.710, 304.500 112.859 C 302.919 114.255, 285.593 133.033, 281.345 137.955 C 279.230 140.405, 275.881 144.102, 273.902 146.169 C 262.351 158.236, 244.708 182.582, 230.904 205.500 C 220.159 223.340, 200.968 260.826, 195.580 274.500 C 194.062 278.350, 192.193 282.850, 191.426 284.500 C 188.025 291.814, 184.252 302.761, 177.468 325 C 172.807 340.280, 170.601 343.656, 164.745 344.467 C 162.410 344.791, 158.250 344.629, 155.500 344.107 C 152.750 343.586, 145.550 342.183, 139.500 340.990 C 124.925 338.117, 105.430 337.860, 95.500 340.410 C 77.633 344.998, 67.568 354.371, 65.010 368.802 C 63.005 380.112, 65.704 390.662, 75.548 410 C 88.594 435.628, 102.604 454.211, 130.300 482.625 C 138.660 491.201, 146.028 499.182, 146.674 500.359 C 147.428 501.735, 147.876 508.397, 147.927 519 C 148.047 544.267, 152.077 586.400, 156.391 607.500 C 157.178 611.350, 158.373 617.425, 159.046 621 C 160.556 629.025, 162.940 638.323, 168.920 659.500 C 170.969 666.757, 175.429 680.011, 176.995 683.500 C 177.489 684.600, 178.862 687.975, 180.046 691 C 183.961 701.002, 190.196 715.278, 192.457 719.421 C 193.682 721.664, 196.638 727.100, 199.027 731.500 C 204.887 742.297, 222.052 769.304, 223.687 770.300 C 225.629 771.482, 225.280 773.776, 223.051 774.484 C 219.435 775.631, 223.948 782.340, 229.019 783.354 C 233.146 784.179, 244.175 789.723, 247.591 792.689 C 249.191 794.079, 252.750 796.669, 255.500 798.445 C 261.198 802.125, 266.626 807.913, 274.796 819.019 C 284.128 831.705, 286 834.452, 286 835.458 C 286 836.062, 286.900 837.326, 288 838.268 C 289.100 839.210, 290 840.605, 290 841.368 C 290 842.131, 290.697 843.334, 291.550 844.041 C 292.948 845.202, 297 852.986, 297 854.512 C 297 854.854, 298.125 856.608, 299.500 858.411 C 300.875 860.214, 302 862.209, 302 862.844 C 302 863.480, 302.450 864, 303 864 C 303.550 864, 304 864.585, 304 865.301 C 304 867.140, 306.352 871.983, 307.250 871.992 C 307.663 871.996, 308 872.693, 308 873.540 C 308 874.386, 309.837 876.880, 312.082 879.081 C 316.778 883.684, 319.850 883.738, 319.694 879.216 C 319.407 870.870, 319.873 869.521, 323.750 867.487 C 325.813 866.405, 327.792 865.112, 328.149 864.614 C 328.506 864.117, 330.306 864.034, 332.149 864.431 C 333.992 864.828, 336.850 865.384, 338.500 865.667 C 342.172 866.296, 350.953 869.880, 353 871.585 C 357.722 875.519, 380.096 890.498, 384.946 892.972 C 403.522 902.449, 434.268 912.317, 456.500 915.939 C 459.800 916.476, 465.200 917.397, 468.500 917.986 C 482.115 920.413, 505.534 923.053, 522.952 924.123 C 546.529 925.573, 616.761 924.598, 641.500 922.477 C 661.989 920.722, 676.217 919.569, 696.940 917.986 C 704.882 917.380, 711.632 916.729, 711.940 916.540 C 712.248 916.351, 721.725 914.551, 733 912.540 C 770.350 905.877, 806.566 896.684, 836.500 886.268 C 854.856 879.881, 876.888 867.225, 896.666 851.708 C 904.361 845.670, 914.133 839.795, 918.879 838.350 C 924.177 836.739, 930.698 837.567, 932.010 840.019 C 932.525 840.982, 934.084 842.055, 935.474 842.404 C 938.280 843.108, 938.277 843.091, 938.016 854.737 C 937.873 861.102, 938.191 863.334, 939.416 864.558 C 940.824 865.967, 941.167 865.976, 942.500 864.643 C 943.325 863.818, 944 862.693, 944 862.142 C 944 861.592, 945.800 858.431, 948 855.119 C 950.200 851.807, 952 848.647, 952 848.098 C 952 847.548, 955.600 839.882, 960 831.061 C 964.400 822.241, 968 814.569, 968 814.012 C 968 813.456, 968.354 813, 968.787 813 C 969.220 813, 971.242 810.101, 973.280 806.557 C 975.730 802.297, 981.901 795.136, 991.493 785.422 C 999.472 777.342, 1006 770.335, 1006 769.852 C 1006 769.368, 1006.563 768.020, 1007.250 766.856 C 1008.250 765.162, 1008.250 764.648, 1007.250 764.286 C 1005.400 763.616, 1005.731 761.554, 1008.020 759.482 C 1012.062 755.824, 1027.675 731.191, 1033.678 719 C 1044.385 697.260, 1047.447 689.957, 1052.550 674 C 1060.583 648.875, 1063.290 636.102, 1065.519 612.796 C 1066.365 603.952, 1067.222 596.442, 1067.423 596.108 C 1068.143 594.910, 1066.140 557.278, 1065.019 550.955 C 1060.500 525.454, 1055.087 506.704, 1045.910 484.758 C 1040.687 472.267, 1040.096 468.649, 1042.516 463.969 C 1044.070 460.964, 1056.423 445.712, 1063.204 438.426 C 1085.005 415.001, 1108.358 372.471, 1110.843 351.664 C 1112.469 338.043, 1107.074 324.517, 1097.671 318.644 C 1090.038 313.877, 1087.870 313.133, 1076.683 311.444 C 1060.449 308.993, 1045.298 310.976, 1022.443 318.542 C 1016.698 320.444, 1011.106 322, 1010.018 322 C 1007.548 322, 1007.321 320.982, 1005.998 304 C 1002.769 262.570, 995.183 232.354, 978.981 196.390 C 970.137 176.757, 964.903 167.022, 956.379 154.345 C 938.554 127.839, 920.057 108.766, 891.393 87.337 C 889.802 86.148, 886.250 83.476, 883.500 81.399 C 849.980 56.088, 800.129 34.428, 757.164 26.507 C 749.649 25.121, 741.025 23.524, 738 22.958 C 722.580 20.071, 701.930 18.862, 663 18.565 C 640.725 18.395, 619.575 18.412, 616 18.602 M 832.286 317.451 C 813.410 323.350, 801.891 340.876, 803.336 361.500 C 804.223 374.159, 808.208 383.783, 816.165 392.491 C 824.800 401.938, 840.569 408.034, 852.515 406.541 C 871.559 404.162, 885.343 386.362, 885.457 364 C 885.550 345.675, 877.193 330.163, 862.627 321.627 C 853.780 316.442, 841.098 314.697, 832.286 317.451 M 417 328.811 C 402.695 333.573, 390.336 345.909, 385.906 359.845 C 382.886 369.348, 383.011 383.259, 386.187 391.285 C 392.132 406.304, 407.571 417.475, 424.139 418.744 C 432.099 419.354, 439.218 417.828, 447.822 413.668 C 463.822 405.932, 475.602 383.807, 473.672 365.114 C 472.335 352.158, 461.157 337.076, 448.382 330.992 C 442.417 328.151, 440.234 327.665, 432 327.347 C 424.705 327.066, 421.223 327.406, 417 328.811 M 638.500 378.638 C 631.360 380.087, 624 382.357, 624 383.111 C 624 383.600, 622.965 384, 621.700 384 C 620.435 384, 618.973 384.418, 618.450 384.928 C 617.928 385.439, 615.194 386.760, 612.375 387.865 C 609.556 388.969, 605.281 390.749, 602.875 391.821 C 592.766 396.324, 580.446 399.611, 564.500 402.058 C 551.851 403.999, 541.516 406.172, 540.550 407.094 C 540.027 407.592, 538.790 408, 537.800 408 C 536.810 408, 536 408.382, 536 408.848 C 536 409.315, 534.201 410.508, 532.002 411.499 C 525.865 414.266, 517.571 423.277, 515.470 429.458 C 513.703 434.657, 513.705 434.703, 516.031 438.841 C 517.316 441.129, 518.735 443, 519.184 443 C 519.633 443, 520 443.453, 520 444.006 C 520 446.740, 539.779 464.106, 548 468.591 C 549.925 469.641, 551.725 470.739, 552 471.030 C 552.903 471.989, 571.172 480.167, 576.519 482.006 C 579.396 482.996, 584.394 484.323, 587.625 484.955 C 590.856 485.587, 594.400 486.500, 595.500 486.984 C 596.600 487.468, 599.075 488.115, 601 488.422 C 602.925 488.729, 605.625 489.192, 607 489.451 C 613.773 490.728, 641.446 492.091, 648.500 491.496 C 671.399 489.563, 700.634 482.413, 714 475.477 C 715.375 474.763, 718.075 473.459, 720 472.580 C 724.615 470.471, 732.489 465.882, 734.722 464 C 735.700 463.175, 737.851 461.639, 739.500 460.587 C 744.288 457.532, 757.880 444.038, 762.715 437.538 C 767.660 430.890, 770 425.988, 770 422.275 C 770 419.706, 765.066 410.003, 763.759 410.001 C 763.351 410, 761.776 408.713, 760.259 407.139 C 756.981 403.740, 752.707 401.441, 745.099 398.985 C 738.798 396.950, 735.913 396.531, 717.500 394.977 C 710.350 394.374, 701.252 393.231, 697.283 392.438 C 691.257 391.234, 674.058 385.991, 666.500 383.054 C 662.556 381.522, 657.440 380.112, 654 379.610 C 647.557 378.670, 640.519 378.229, 638.500 378.638 M 1276 598 C 1273.784 600.216, 1273.487 601.565, 1275.009 602.506 C 1277.169 603.841, 1279.696 601.974, 1279.781 598.981 C 1279.880 595.500, 1278.784 595.216, 1276 598 M 1038.500 741.303 C 1033.371 744.036, 1028.769 747.717, 1019.897 756.183 C 1011.446 764.249, 1015.629 767.730, 1028.146 763.047 C 1032.975 761.240, 1040 756.137, 1040 754.435 C 1040 753.505, 1049.678 744, 1050.626 744 C 1051.852 744, 1054.134 740.196, 1053.230 739.662 C 1052.828 739.425, 1050.700 738.978, 1048.500 738.669 C 1045.252 738.212, 1043.372 738.707, 1038.500 741.303 M 961.998 803.750 C 961.997 804.163, 959.747 806.033, 956.998 807.907 C 954.249 809.780, 952 811.656, 952 812.075 C 952 816.627, 957.241 817.391, 960.718 813.344 C 961.973 811.884, 963.006 809.971, 963.014 809.094 C 963.021 808.218, 963.299 806.487, 963.630 805.250 C 963.992 803.900, 963.787 803, 963.117 803 C 962.502 803, 961.999 803.337, 961.998 803.750" stroke="none" fill="#281e0d" fill-rule="evenodd"/><path d="M 616 18.602 C 572.939 20.890, 527.553 23.951, 520.500 25.042 C 517.200 25.552, 508.200 26.907, 500.500 28.052 C 492.800 29.197, 483.575 30.802, 480 31.618 C 476.425 32.435, 470.575 33.752, 467 34.545 C 463.425 35.339, 456.450 37.147, 451.500 38.563 C 439.845 41.899, 435.705 42.920, 431.739 43.438 C 425.703 44.227, 419.529 45.964, 410 49.555 C 404.775 51.524, 399.613 53.408, 398.528 53.742 C 394.900 54.860, 376.737 64.085, 372.594 66.915 C 370.342 68.452, 364.900 71.666, 360.500 74.057 C 356.100 76.447, 352.350 78.762, 352.167 79.201 C 351.983 79.641, 351.083 80.036, 350.167 80.081 C 346.771 80.245, 330.278 91.245, 322.998 98.202 C 320.523 100.566, 317.217 103.400, 315.650 104.500 C 312.022 107.046, 305.801 111.710, 304.500 112.859 C 302.919 114.255, 285.593 133.033, 281.345 137.955 C 279.230 140.405, 275.881 144.102, 273.902 146.169 C 262.351 158.236, 244.708 182.582, 230.904 205.500 C 220.159 223.340, 200.968 260.826, 195.580 274.500 C 194.062 278.350, 192.193 282.850, 191.426 284.500 C 188.025 291.814, 184.252 302.761, 177.468 325 C 172.807 340.280, 170.601 343.656, 164.745 344.467 C 162.410 344.791, 158.250 344.629, 155.500 344.107 C 152.750 343.586, 145.550 342.183, 139.500 340.990 C 124.925 338.117, 105.430 337.860, 95.500 340.410 C 77.633 344.998, 67.568 354.371, 65.010 368.802 C 63.005 380.112, 65.704 390.662, 75.548 410 C 88.594 435.628, 102.604 454.211, 130.300 482.625 C 138.660 491.201, 146.028 499.182, 146.674 500.359 C 147.428 501.735, 147.876 508.397, 147.927 519 C 148.047 544.267, 152.077 586.400, 156.391 607.500 C 157.178 611.350, 158.373 617.425, 159.046 621 C 160.556 629.025, 162.940 638.323, 168.920 659.500 C 170.969 666.757, 175.429 680.011, 176.995 683.500 C 177.489 684.600, 178.862 687.975, 180.046 691 C 183.961 701.002, 190.196 715.278, 192.457 719.421 C 193.682 721.664, 196.638 727.100, 199.027 731.500 C 204.887 742.297, 222.052 769.304, 223.687 770.300 C 225.629 771.482, 225.280 773.776, 223.051 774.484 C 219.435 775.631, 223.948 782.340, 229.019 783.354 C 233.146 784.179, 244.175 789.723, 247.591 792.689 C 249.191 794.079, 252.750 796.669, 255.500 798.445 C 261.198 802.125, 266.626 807.913, 274.796 819.019 C 284.128 831.705, 286 834.452, 286 835.458 C 286 836.062, 286.900 837.326, 288 838.268 C 289.100 839.210, 290 840.605, 290 841.368 C 290 842.131, 290.697 843.334, 291.550 844.041 C 292.948 845.202, 297 852.986, 297 854.512 C 297 854.854, 298.125 856.608, 299.500 858.411 C 300.875 860.214, 302 862.209, 302 862.844 C 302 863.480, 302.450 864, 303 864 C 303.550 864, 304 864.585, 304 865.301 C 304 867.140, 306.352 871.983, 307.250 871.992 C 307.663 871.996, 308 872.693, 308 873.540 C 308 874.386, 309.837 876.880, 312.082 879.081 C 316.778 883.684, 319.850 883.738, 319.694 879.216 C 319.407 870.870, 319.873 869.521, 323.750 867.487 C 325.813 866.405, 327.792 865.112, 328.149 864.614 C 328.506 864.117, 330.306 864.034, 332.149 864.431 C 333.992 864.828, 336.850 865.384, 338.500 865.667 C 342.172 866.296, 350.953 869.880, 353 871.585 C 357.722 875.519, 380.096 890.498, 384.946 892.972 C 403.522 902.449, 434.268 912.317, 456.500 915.939 C 459.800 916.476, 465.200 917.397, 468.500 917.986 C 482.115 920.413, 505.534 923.053, 522.952 924.123 C 546.529 925.573, 616.761 924.598, 641.500 922.477 C 661.989 920.722, 676.217 919.569, 696.940 917.986 C 704.882 917.380, 711.632 916.729, 711.940 916.540 C 712.248 916.351, 721.725 914.551, 733 912.540 C 770.350 905.877, 806.566 896.684, 836.500 886.268 C 854.856 879.881, 876.888 867.225, 896.666 851.708 C 904.361 845.670, 914.133 839.795, 918.879 838.350 C 924.177 836.739, 930.698 837.567, 932.010 840.019 C 932.525 840.982, 934.084 842.055, 935.474 842.404 C 938.280 843.108, 938.277 843.091, 938.016 854.737 C 937.873 861.102, 938.191 863.334, 939.416 864.558 C 940.824 865.967, 941.167 865.976, 942.500 864.643 C 943.325 863.818, 944 862.693, 944 862.142 C 944 861.592, 945.800 858.431, 948 855.119 C 950.200 851.807, 952 848.647, 952 848.098 C 952 847.548, 955.600 839.882, 960 831.061 C 964.400 822.241, 968 814.569, 968 814.012 C 968 813.456, 968.354 813, 968.787 813 C 969.220 813, 971.242 810.101, 973.280 806.557 C 975.730 802.297, 981.901 795.136, 991.493 785.422 C 999.472 777.342, 1006 770.335, 1006 769.852 C 1006 769.368, 1006.563 768.020, 1007.250 766.856 C 1008.250 765.162, 1008.250 764.648, 1007.250 764.286 C 1005.400 763.616, 1005.731 761.554, 1008.020 759.482 C 1012.062 755.824, 1027.675 731.191, 1033.678 719 C 1044.385 697.260, 1047.447 689.957, 1052.550 674 C 1060.583 648.875, 1063.290 636.102, 1065.519 612.796 C 1066.365 603.952, 1067.222 596.442, 1067.423 596.108 C 1068.143 594.910, 1066.140 557.278, 1065.019 550.955 C 1060.500 525.454, 1055.087 506.704, 1045.910 484.758 C 1040.687 472.267, 1040.096 468.649, 1042.516 463.969 C 1044.070 460.964, 1056.423 445.712, 1063.204 438.426 C 1085.005 415.001, 1108.358 372.471, 1110.843 351.664 C 1112.469 338.043, 1107.074 324.517, 1097.671 318.644 C 1090.038 313.877, 1087.870 313.133, 1076.683 311.444 C 1060.449 308.993, 1045.298 310.976, 1022.443 318.542 C 1016.698 320.444, 1011.106 322, 1010.018 322 C 1007.548 322, 1007.321 320.982, 1005.998 304 C 1002.769 262.570, 995.183 232.354, 978.981 196.390 C 970.137 176.757, 964.903 167.022, 956.379 154.345 C 938.554 127.839, 920.057 108.766, 891.393 87.337 C 889.802 86.148, 886.250 83.476, 883.500 81.399 C 849.980 56.088, 800.129 34.428, 757.164 26.507 C 749.649 25.121, 741.025 23.524, 738 22.958 C 722.580 20.071, 701.930 18.862, 663 18.565 C 640.725 18.395, 619.575 18.412, 616 18.602 M 832.286 317.451 C 813.410 323.350, 801.891 340.876, 803.336 361.500 C 804.223 374.159, 808.208 383.783, 816.165 392.491 C 824.800 401.938, 840.569 408.034, 852.515 406.541 C 871.559 404.162, 885.343 386.362, 885.457 364 C 885.550 345.675, 877.193 330.163, 862.627 321.627 C 853.780 316.442, 841.098 314.697, 832.286 317.451 M 417 328.811 C 402.695 333.573, 390.336 345.909, 385.906 359.845 C 382.886 369.348, 383.011 383.259, 386.187 391.285 C 392.132 406.304, 407.571 417.475, 424.139 418.744 C 432.099 419.354, 439.218 417.828, 447.822 413.668 C 463.822 405.932, 475.602 383.807, 473.672 365.114 C 472.335 352.158, 461.157 337.076, 448.382 330.992 C 442.417 328.151, 440.234 327.665, 432 327.347 C 424.705 327.066, 421.223 327.406, 417 328.811 M 638.500 378.638 C 631.360 380.087, 624 382.357, 624 383.111 C 624 383.600, 622.965 384, 621.700 384 C 620.435 384, 618.973 384.418, 618.450 384.928 C 617.928 385.439, 615.194 386.760, 612.375 387.865 C 609.556 388.969, 605.281 390.749, 602.875 391.821 C 592.766 396.324, 580.446 399.611, 564.500 402.058 C 551.851 403.999, 541.516 406.172, 540.550 407.094 C 540.027 407.592, 538.790 408, 537.800 408 C 536.810 408, 536 408.382, 536 408.848 C 536 409.315, 534.201 410.508, 532.002 411.499 C 525.865 414.266, 517.571 423.277, 515.470 429.458 C 513.703 434.657, 513.705 434.703, 516.031 438.841 C 517.316 441.129, 518.735 443, 519.184 443 C 519.633 443, 520 443.453, 520 444.006 C 520 446.740, 539.779 464.106, 548 468.591 C 549.925 469.641, 551.725 470.739, 552 471.030 C 552.903 471.989, 571.172 480.167, 576.519 482.006 C 579.396 482.996, 584.394 484.323, 587.625 484.955 C 590.856 485.587, 594.400 486.500, 595.500 486.984 C 596.600 487.468, 599.075 488.115, 601 488.422 C 602.925 488.729, 605.625 489.192, 607 489.451 C 613.773 490.728, 641.446 492.091, 648.500 491.496 C 671.399 489.563, 700.634 482.413, 714 475.477 C 715.375 474.763, 718.075 473.459, 720 472.580 C 724.615 470.471, 732.489 465.882, 734.722 464 C 735.700 463.175, 737.851 461.639, 739.500 460.587 C 744.288 457.532, 757.880 444.038, 762.715 437.538 C 767.660 430.890, 770 425.988, 770 422.275 C 770 419.706, 765.066 410.003, 763.759 410.001 C 763.351 410, 761.776 408.713, 760.259 407.139 C 756.981 403.740, 752.707 401.441, 745.099 398.985 C 738.798 396.950, 735.913 396.531, 717.500 394.977 C 710.350 394.374, 701.252 393.231, 697.283 392.438 C 691.257 391.234, 674.058 385.991, 666.500 383.054 C 662.556 381.522, 657.440 380.112, 654 379.610 C 647.557 378.670, 640.519 378.229, 638.500 378.638 M 1276 598 C 1273.784 600.216, 1273.487 601.565, 1275.009 602.506 C 1277.169 603.841, 1279.696 601.974, 1279.781 598.981 C 1279.880 595.500, 1278.784 595.216, 1276 598 M 1038.500 741.303 C 1033.371 744.036, 1028.769 747.717, 1019.897 756.183 C 1011.446 764.249, 1015.629 767.730, 1028.146 763.047 C 1032.975 761.240, 1040 756.137, 1040 754.435 C 1040 753.505, 1049.678 744, 1050.626 744 C 1051.852 744, 1054.134 740.196, 1053.230 739.662 C 1052.828 739.425, 1050.700 738.978, 1048.500 738.669 C 1045.252 738.212, 1043.372 738.707, 1038.500 741.303 M 961.998 803.750 C 961.997 804.163, 959.747 806.033, 956.998 807.907 C 954.249 809.780, 952 811.656, 952 812.075 C 952 816.627, 957.241 817.391, 960.718 813.344 C 961.973 811.884, 963.006 809.971, 963.014 809.094 C 963.021 808.218, 963.299 806.487, 963.630 805.250 C 963.992 803.900, 963.787 803, 963.117 803 C 962.502 803, 961.999 803.337, 961.998 803.750" stroke="none" fill="#c4b686" fill-rule="evenodd"/></svg>